<svg width="15" height="17" viewBox="0 0 15 17" fill="none" xmlns="http://www.w3.org/2000/svg">
<path fill-rule="evenodd" clip-rule="evenodd" d="M9.71373 0.177173C9.67378 0.177234 8.11864 0.000241251 8.078 0.000241251H6.922C6.88136 0.000241251 6.84107 0.000179968 6.80113 0.000119173C6.23154 -0.000747923 5.73173 -0.0015087 5.28627 0.17717C4.89673 0.333425 4.55196 0.586926 4.28349 0.914369C3.97646 1.28891 3.81901 1.77295 3.63962 2.32456C3.62707 2.36313 3.61442 2.40203 3.60161 2.44125L3.566 2.5502H0.833333C0.373096 2.5502 0 2.93076 0 3.40019C0 3.86963 0.373096 4.25018 0.833333 4.25018H1.66667V12.1052C1.66666 12.7894 1.66665 13.3541 1.7035 13.8141C1.74177 14.2919 1.82391 14.7311 2.02998 15.1436C2.34954 15.7834 2.85945 16.3035 3.48669 16.6294C3.89114 16.8396 4.32171 16.9234 4.79014 16.9624C5.24113 17 5.79475 17 6.46556 17H8.53443C9.20523 17 9.75887 17 10.2099 16.9624C10.6783 16.9234 11.1089 16.8396 11.5133 16.6294C12.1405 16.3035 12.6504 15.7834 12.97 15.1436C13.1761 14.7311 13.2582 14.2919 13.2965 13.8141C13.3334 13.3541 13.3333 12.7894 13.3333 12.1052L13.3333 4.25018H14.1667C14.6269 4.25018 15 3.86963 15 3.40019C15 2.93076 14.6269 2.5502 14.1667 2.5502H11.434L11.3984 2.44127C11.3855 2.40193 11.3728 2.36289 11.3602 2.32419C11.1809 1.77283 11.0236 1.28888 10.7165 0.914384M10.8525 4.25018C10.8396 4.25049 10.8267 4.25049 10.8139 4.25018H4.18612C4.17326 4.25049 4.16037 4.25049 4.14745 4.25018H3.33333V12.0701C3.33333 12.7982 3.33398 13.2931 3.36463 13.6757C3.39448 14.0483 3.44858 14.2389 3.51501 14.3719C3.67478 14.6917 3.9297 14.9517 4.2433 15.1147C4.37367 15.1825 4.56054 15.2377 4.92586 15.2681C5.30093 15.2994 5.78616 15.3 6.5 15.3H8.5C9.21382 15.3 9.69906 15.2994 10.0741 15.2681C10.4395 15.2377 10.6263 15.1825 10.7566 15.1147C11.0702 14.9518 11.3252 14.6917 11.485 14.3719C11.5514 14.2389 11.6055 14.0483 11.6354 13.6757C11.666 13.2931 11.6667 12.7982 11.6667 12.0701V4.25018H10.8525ZM5.3255 2.5502H9.67448C9.54647 2.17689 9.49675 2.07659 9.438 2.00494C9.34851 1.89578 9.23358 1.81128 9.10376 1.75921M5.3255 2.5502C5.45348 2.17705 5.50326 2.07662 5.56201 2.00494C5.65153 1.89574 5.76644 1.81127 5.89623 1.75921C6.0077 1.7145 6.15976 1.70022 6.922 1.70022H8.078C8.84023 1.70022 8.9923 1.7145 9.10376 1.75921M9.71373 0.177173C9.71373 0.177173 10.448 0.586904 10.7165 0.914384L9.71373 0.177173ZM9.16667 5.95016C8.70643 5.95016 8.33333 6.33071 8.33333 6.80014V12.7501C8.33333 13.2195 8.70643 13.6 9.16667 13.6C9.6269 13.6 10 13.2195 10 12.7501V6.80014C10 6.33071 9.6269 5.95016 9.16667 5.95016ZM5.83333 5.95016C5.3731 5.95016 5 6.33071 5 6.80014V12.7501C5 13.2195 5.3731 13.6 5.83333 13.6C6.29357 13.6 6.66667 13.2195 6.66667 12.7501V6.80014C6.66667 6.33071 6.29357 5.95016 5.83333 5.95016Z" fill="#D3D3D3"/>
</svg>
