<svg width="25" height="25" viewBox="0 0 25 25" fill="none" xmlns="http://www.w3.org/2000/svg">
<path fill-rule="evenodd" clip-rule="evenodd" d="M2.08331 3.12501C2.08331 2.54971 2.54968 2.08334 3.12498 2.08334H6.24998C6.76412 2.08334 7.20135 2.45846 7.27953 2.96662L7.46416 4.16668H21.875C22.2018 4.16668 22.5098 4.3201 22.7066 4.58106C22.9034 4.84201 22.9664 5.18022 22.8766 5.49451L20.7932 12.7862C20.6655 13.2334 20.2567 13.5417 19.7916 13.5417H8.90647L9.22698 15.625H20.8333C21.4086 15.625 21.875 16.0914 21.875 16.6667C21.875 17.242 21.4086 17.7083 20.8333 17.7083H8.33331C7.81918 17.7083 7.38194 17.3332 7.30376 16.8251L6.68263 12.7877C6.65894 12.7051 6.64519 12.6183 6.64277 12.5287L5.56085 5.4962C5.53713 5.4135 5.52337 5.32659 5.52096 5.23685L5.35631 4.16668H3.12498C2.54968 4.16668 2.08331 3.70031 2.08331 3.12501ZM7.78467 6.25001L8.58595 11.4583H19.0059L20.494 6.25001H7.78467ZM6.24998 20.8333C6.24998 19.6827 7.18274 18.75 8.33331 18.75C9.48389 18.75 10.4166 19.6827 10.4166 20.8333C10.4166 21.984 9.48389 22.9167 8.33331 22.9167C7.18274 22.9167 6.24998 21.984 6.24998 20.8333ZM17.7083 20.8333C17.7083 19.6827 18.641 18.75 19.7916 18.75C20.9423 18.75 21.875 19.6827 21.875 20.8333C21.875 21.984 20.9423 22.9167 19.7916 22.9167C18.641 22.9167 17.7083 21.984 17.7083 20.8333Z" fill="white"/>
</svg>
