<svg width="16" height="15" viewBox="0 0 16 15" fill="none" xmlns="http://www.w3.org/2000/svg">
<path fill-rule="evenodd" clip-rule="evenodd" d="M5.04 1.66667C3.06271 1.66667 1.6 3.64489 1.6 5.63333C1.6 6.58512 1.95937 7.54308 2.56879 8.47776C3.17747 9.41129 4.00573 10.2749 4.86381 11.0189C5.71878 11.7602 6.58127 12.3639 7.23813 12.782C7.54907 12.9799 7.81081 13.1343 8 13.2402C8.18919 13.1343 8.45093 12.9799 8.76187 12.782C9.41873 12.3639 10.2812 11.7602 11.1362 11.0189C11.9943 10.2749 12.8225 9.41129 13.4312 8.47776C14.0406 7.54308 14.4 6.58512 14.4 5.63333C14.4 3.64489 12.9373 1.66667 10.96 1.66667C9.80478 1.66667 9.0568 2.25792 8.6058 2.80261C8.45383 2.98614 8.23268 3.09167 8 3.09167C7.76732 3.09167 7.54617 2.98614 7.3942 2.80261C6.9432 2.25792 6.19522 1.66667 5.04 1.66667ZM0 5.63333C0 2.98845 1.94529 0 5.04 0C6.34464 0 7.31797 0.510374 8 1.09608C8.68203 0.510374 9.65536 0 10.96 0C14.0547 0 16 2.98845 16 5.63333C16 7.02738 15.4754 8.309 14.7548 9.41417C14.0335 10.5205 13.0857 11.497 12.1598 12.2999C11.2308 13.1054 10.3013 13.7554 9.59613 14.2042C9.24302 14.4289 8.94269 14.6055 8.72253 14.7278C8.61308 14.7886 8.51955 14.8381 8.44688 14.8743C8.41161 14.8918 8.37411 14.9098 8.33873 14.9251C8.32203 14.9323 8.29582 14.9433 8.26539 14.954C8.25046 14.9592 8.22514 14.9676 8.19375 14.9756L8.1932 14.9757C8.17326 14.9808 8.09768 15 8 15C7.90233 15 7.82674 14.9808 7.8068 14.9757L7.80625 14.9756C7.77486 14.9676 7.74954 14.9592 7.73461 14.954C7.70418 14.9433 7.67798 14.9323 7.66127 14.9251C7.62589 14.9098 7.58839 14.8918 7.55312 14.8743C7.48045 14.8381 7.38692 14.7886 7.27747 14.7278C7.05731 14.6055 6.75699 14.4289 6.40387 14.2042C5.69873 13.7554 4.76922 13.1054 3.84019 12.2999C2.91427 11.497 1.96653 10.5205 1.24521 9.41417C0.524627 8.309 0 7.02738 0 5.63333Z" fill="#D3D3D3"/>
</svg>
