<svg width="25" height="25" viewBox="0 0 25 25" fill="none" xmlns="http://www.w3.org/2000/svg">
<path fill-rule="evenodd" clip-rule="evenodd" d="M8.64581 5.20833C6.07122 5.20833 4.16665 7.68111 4.16665 10.1667C4.16665 11.3564 4.63458 12.5539 5.4281 13.7222C6.22064 14.8891 7.29911 15.9686 8.4164 16.8986C9.52964 17.8253 10.6527 18.5799 11.508 19.1025C11.9128 19.3499 12.2536 19.5428 12.5 19.6753C12.7463 19.5428 13.0871 19.3499 13.492 19.1025C14.3473 18.5799 15.4703 17.8253 16.5836 16.8986C17.7008 15.9686 18.7793 14.8891 19.5719 13.7222C20.3654 12.5539 20.8333 11.3564 20.8333 10.1667C20.8333 7.68111 18.9287 5.20833 16.3541 5.20833C14.85 5.20833 13.876 5.9474 13.2888 6.62826C13.0909 6.85768 12.8029 6.98958 12.5 6.98958C12.197 6.98958 11.9091 6.85768 11.7112 6.62826C11.1239 5.9474 10.15 5.20833 8.64581 5.20833ZM2.08331 10.1667C2.08331 6.86056 4.61624 3.125 8.64581 3.125C10.3446 3.125 11.6119 3.76297 12.5 4.4951C13.388 3.76297 14.6554 3.125 16.3541 3.125C20.3837 3.125 22.9166 6.86056 22.9166 10.1667C22.9166 11.9092 22.2335 13.5113 21.2953 14.8927C20.3561 16.2756 19.122 17.4963 17.9164 18.4998C16.7067 19.5067 15.4964 20.3192 14.5783 20.8802C14.1185 21.1612 13.7274 21.3819 13.4408 21.5347C13.2983 21.6107 13.1765 21.6726 13.0819 21.7178C13.0359 21.7398 12.9871 21.7623 12.941 21.7814C12.9193 21.7904 12.8852 21.8042 12.8455 21.8174C12.8261 21.824 12.7931 21.8345 12.7523 21.8445L12.7515 21.8447C12.7256 21.851 12.6272 21.875 12.5 21.875C12.3728 21.875 12.2744 21.851 12.2484 21.8447L12.2477 21.8445C12.2068 21.8345 12.1739 21.824 12.1544 21.8174C12.1148 21.8042 12.0807 21.7904 12.0589 21.7814C12.0129 21.7623 11.964 21.7398 11.9181 21.7178C11.8235 21.6726 11.7017 21.6107 11.5592 21.5347C11.2725 21.3819 10.8815 21.1612 10.4217 20.8802C9.50354 20.3192 8.29323 19.5067 7.08356 18.4998C5.87793 17.4963 4.6439 16.2756 3.70467 14.8927C2.76642 13.5113 2.08331 11.9092 2.08331 10.1667Z" fill="white"/>
</svg>
