<svg width="20" height="20" viewBox="0 0 20 20" fill="none" xmlns="http://www.w3.org/2000/svg">
<path fill-rule="evenodd" clip-rule="evenodd" d="M10.5 2C10.9602 2 11.3333 2.3731 11.3333 2.83333V8.66667H17.1667C17.6269 8.66667 18 9.03976 18 9.5C18 9.96024 17.6269 10.3333 17.1667 10.3333H11.3333V16.1667C11.3333 16.6269 10.9602 17 10.5 17C10.0398 17 9.66667 16.6269 9.66667 16.1667V10.3333H3.83333C3.3731 10.3333 3 9.96024 3 9.5C3 9.03976 3.3731 8.66667 3.83333 8.66667H9.66667V2.83333C9.66667 2.3731 10.0398 2 10.5 2Z" fill="#DEDEE1"/>
</svg>
