<svg width="15" height="15" viewBox="0 0 15 15" fill="none" xmlns="http://www.w3.org/2000/svg">
<path fill-rule="evenodd" clip-rule="evenodd" d="M1.25 1.875C1.25 1.52982 1.52982 1.25 1.875 1.25H3.75C4.05848 1.25 4.32083 1.47507 4.36773 1.77996L4.47851 2.5H13.125C13.3211 2.5 13.5059 2.59206 13.624 2.74863C13.7421 2.9052 13.7798 3.10813 13.726 3.2967L12.476 7.6717C12.3993 7.94002 12.154 8.125 11.875 8.125H5.34389L5.5362 9.375H12.5C12.8452 9.375 13.125 9.65482 13.125 10C13.125 10.3452 12.8452 10.625 12.5 10.625H5C4.69152 10.625 4.42917 10.3999 4.38227 10.095L4.00959 7.67263C3.99537 7.62307 3.98713 7.57097 3.98568 7.51719L3.33653 3.29771C3.32229 3.24809 3.31403 3.19595 3.31259 3.1421L3.2138 2.5H1.875C1.52982 2.5 1.25 2.22018 1.25 1.875ZM4.67081 3.75L5.15158 6.875H11.4036L12.2964 3.75H4.67081ZM3.75 12.5C3.75 11.8096 4.30965 11.25 5 11.25C5.69034 11.25 6.25 11.8096 6.25 12.5C6.25 13.1904 5.69034 13.75 5 13.75C4.30965 13.75 3.75 13.1904 3.75 12.5ZM10.625 12.5C10.625 11.8096 11.1846 11.25 11.875 11.25C12.5654 11.25 13.125 11.8096 13.125 12.5C13.125 13.1904 12.5654 13.75 11.875 13.75C11.1846 13.75 10.625 13.1904 10.625 12.5Z" fill="#C94343"/>
</svg>
