<svg width="56" height="56" viewBox="0 0 56 56" fill="none" xmlns="http://www.w3.org/2000/svg">
<g clip-path="url(#clip0_4_3)">
<rect x="25.8303" width="40" height="38.9412" rx="19.4706" transform="rotate(41.5532 25.8303 0)" fill="#F0F0F0"/>
<path d="M29.6022 26.6404C29.4799 26.07 29.8415 25.5205 30.4107 25.4138L31.9568 25.1232C32.5263 25.0161 33.0866 25.3914 33.2093 25.9622C33.3323 26.5325 32.9695 27.0817 32.4007 27.1888L30.8547 27.4793C30.2859 27.5864 29.7244 27.2108 29.6022 26.6404Z" fill="#C03A2B"/>
<path d="M30.8644 30.5364C30.7417 29.9656 31.1038 29.4165 31.6733 29.3094L33.219 29.0192C33.7885 28.9121 34.3489 29.2874 34.4718 29.8578C34.5945 30.4286 34.2321 30.9774 33.6629 31.0848L32.1169 31.3754C31.5481 31.4824 30.9869 31.1065 30.8644 30.5364Z" fill="#C03A2B"/>
<path d="M38.202 40.6577C37.8584 41.1878 34.9483 39.5985 34.0735 39.2628C33.9095 39.1994 33.7371 39.1721 33.5631 39.1802C33.4805 39.1841 33.3982 39.1797 33.3171 39.1675C33.0738 39.1308 32.8431 39.0235 32.6552 38.8569L16.3931 24.4425L14.2891 22.5775C13.1474 22.7873 12.8219 23.3661 12.782 23.8927C12.7437 24.3998 12.9906 24.8955 13.3777 25.2387L29.1617 39.2293C30.9425 40.8078 33.0445 41.9771 35.3137 42.6517L35.5921 42.7347C36.2838 42.9426 38.202 40.6577 38.202 40.6577Z" fill="#ACAAAF"/>
<path d="M37.3223 38.1375C36.0995 37.1146 35.3858 35.2353 35.3858 35.2353L33.2915 31.1547L32.1171 31.3757C31.5479 31.4824 30.9872 31.1068 30.8642 30.5364C30.7419 29.966 31.104 29.4168 31.6731 29.3094L32.4182 29.1699C32.1944 28.5532 32.0226 27.9229 31.8755 27.2873L30.8549 27.4796C30.2857 27.5863 29.7246 27.2111 29.6024 26.6407C29.4797 26.0699 29.8417 25.5207 30.4113 25.4136L31.528 25.2039C31.4767 24.67 31.445 24.1333 31.4479 23.5961C31.4595 21.5819 31.2699 19.37 30.4345 18.8501C28.8198 17.8456 26.2796 17.9424 22.281 14.3981L18.845 18.2745C18.845 18.2745 14.7086 18.134 14.2889 22.5776L16.3934 24.443L32.6551 38.8571C32.9061 39.0796 33.2329 39.1958 33.563 39.1803C33.737 39.1722 33.9094 39.1995 34.0738 39.2626C34.9483 39.5986 37.8424 41.1801 38.2019 40.6579C38.6235 40.0463 38.5452 39.1603 37.3223 38.1375Z" fill="#DEDEE1"/>
<path d="M23.3081 18.0674L25.7027 20.1899C26.1433 20.5805 26.8095 20.5493 27.1897 20.1204L28.9075 18.1824C27.653 17.742 26.0358 17.2333 23.9508 15.7343L23.1987 16.5828C22.8185 17.0117 22.8675 17.6768 23.3081 18.0674Z" fill="#C03A2B"/>
<path d="M29.4811 36.0274L16.71 24.7073C17.4707 23.849 18.8023 23.7867 19.6839 24.5682L29.2623 33.0583C30.1439 33.8397 30.2419 35.1691 29.4811 36.0274Z" fill="#C03A2B"/>
<path d="M24.5987 25.4555L21.4059 22.6255C20.9653 22.2349 20.9163 21.5698 21.2965 21.1409C21.6767 20.7119 22.3429 20.6808 22.7835 21.0713L25.9763 23.9014C26.4169 24.2919 26.4659 24.957 26.0857 25.386C25.7055 25.8149 25.0393 25.846 24.5987 25.4555Z" fill="#C03A2B"/>
</g>
<defs>
<clipPath id="clip0_4_3">
<rect x="25.8303" width="40" height="38.9412" rx="19.4706" transform="rotate(41.5532 25.8303 0)" fill="white"/>
</clipPath>
</defs>
</svg>
